<svg version="1.1" id="Layer_1" xmlns="http://www.w3.org/2000/svg" xmlns:xlink="http://www.w3.org/1999/xlink" x="0px" y="0px"
	 width="100%" viewBox="0 0 400 128" enable-background="new 0 0 400 128" xml:space="preserve">
<path fill="#000000" opacity="1.000000" stroke="none" 
	d="
M251.547485,83.109909 
	C247.696548,66.773285 251.043274,52.029507 261.035065,39.476391 
	C269.727356,28.555882 279.851501,28.415442 291.674652,32.849766 
	C294.039062,33.736546 294.760956,35.771534 294.875519,38.036350 
	C294.924591,39.006573 294.725342,40.059879 294.366028,40.967354 
	C293.161499,44.009293 293.554230,49.058464 288.890106,48.589161 
	C284.779541,48.175552 284.974152,43.801239 285.065338,40.457947 
	C285.174530,36.455956 283.341766,35.848137 280.065063,37.233307 
	C278.509399,37.890953 276.977936,38.621861 275.980499,40.008739 
	C267.826660,51.346096 262.032928,63.494877 263.318634,77.973541 
	C263.803619,83.435402 265.556122,87.969597 271.528229,89.821014 
	C273.780518,90.519241 275.604065,90.517288 277.721558,89.559303 
	C284.194458,86.630898 289.150726,82.278328 292.102875,75.676773 
	C294.753113,69.750389 298.560455,64.805458 304.816650,62.209003 
	C307.972473,60.899265 310.972107,60.819576 313.733185,63.104206 
	C314.881989,64.054771 316.240997,65.017517 315.862854,66.761887 
	C315.499481,68.438011 313.840027,68.185585 312.618866,68.562790 
	C306.127197,70.567986 300.003204,78.980865 300.176636,85.700661 
	C300.187653,86.126190 300.595276,86.541489 300.933685,87.178635 
	C303.511139,86.672249 304.093353,84.413345 305.054749,82.618576 
	C306.941772,79.095909 308.668121,75.487465 310.535767,71.954056 
	C311.961334,69.256996 314.429352,68.878029 316.974213,69.742867 
	C319.650970,70.652542 320.124634,72.715523 319.382568,75.403450 
	C318.286499,79.373550 317.490387,83.426445 316.278015,88.698830 
	C320.807037,84.890007 323.406738,81.370560 323.676575,76.482704 
	C324.193390,67.121536 326.076385,58.038879 328.823639,49.092216 
	C330.877655,42.403091 335.659729,38.594906 341.898468,36.373058 
	C347.709320,34.303589 352.597412,38.178551 351.485779,44.285339 
	C349.874542,53.136688 345.856293,60.919910 339.451721,67.376999 
	C334.761719,72.105431 334.317841,77.802605 335.598999,84.674713 
	C340.247650,83.008408 343.586029,80.725235 344.899963,76.197899 
	C346.324554,71.289207 348.732788,67.007156 352.352112,63.386627 
	C353.798615,61.939617 355.378235,60.843243 357.407776,60.348259 
	C361.276855,59.404610 365.187286,58.741261 367.818665,62.609005 
	C370.372437,66.362648 368.165314,69.704353 365.961334,72.647446 
	C363.564423,75.848206 360.620941,78.612549 357.317291,80.902840 
	C355.572113,82.112709 354.382538,83.419159 354.273743,85.706261 
	C354.059601,90.208221 355.534058,91.344521 359.499176,89.336189 
	C364.906342,86.597481 368.393402,81.925797 371.600769,76.997086 
	C372.730377,75.261276 373.547882,73.116905 376.318481,72.876579 
	C377.331543,75.632187 375.287292,77.085411 374.277283,78.784363 
	C371.112274,84.108292 367.486267,89.080002 362.238098,92.591370 
	C354.460693,97.794945 347.831879,95.638779 344.584717,86.905304 
	C344.363953,86.311562 344.039703,85.756271 343.727875,85.108971 
	C341.385773,85.756630 339.835236,87.202278 338.056274,88.766731 
	C340.917725,93.902084 341.900269,99.383430 340.653290,105.104881 
	C339.840485,108.834236 338.223511,112.510147 333.914642,112.764755 
	C329.810425,113.007263 327.999512,109.608078 326.718292,106.192558 
	C324.408783,100.035599 323.995819,93.553162 323.445648,86.371735 
	C320.834686,89.523331 318.806274,92.994125 314.675323,93.233574 
	C310.038055,93.502365 308.649078,89.919907 307.119568,86.182884 
	C304.597443,88.952919 302.749115,92.532631 298.615234,92.615364 
	C294.549133,92.696747 292.040253,89.849075 289.464020,86.865875 
	C282.101288,92.678802 274.761871,98.481056 264.608826,95.670860 
	C258.234009,93.906425 253.948486,89.713356 251.547485,83.109909 
M345.486328,52.905708 
	C346.753845,50.183651 347.984314,47.415260 348.179901,44.395081 
	C348.288879,42.711910 347.747314,41.010597 345.840729,40.404938 
	C344.180359,39.877487 342.719086,40.577457 342.028015,42.020172 
	C339.017944,48.304363 337.233856,54.871738 337.373901,62.615337 
	C342.065063,60.538551 342.842377,56.414005 345.486328,52.905708 
M336.721161,102.663147 
	C336.468170,100.498833 337.032227,98.155891 335.477112,96.267761 
	C335.545746,99.142647 334.811584,102.114372 336.480774,106.011208 
	C336.639893,104.252747 336.683228,103.773575 336.721161,102.663147 
z"/>
<path fill="#000000" opacity="1.000000" stroke="none" 
	d="
M56.899239,66.139839 
	C55.169281,65.935196 53.849155,65.763878 52.537537,65.542213 
	C49.303894,64.995735 47.580021,65.989891 47.270378,69.607162 
	C46.774700,75.397758 44.364071,80.833519 43.966084,86.724159 
	C43.762905,89.731407 41.814770,92.918205 38.361073,92.780807 
	C34.951164,92.645172 34.383823,89.101974 33.897270,86.368217 
	C33.061668,81.673264 34.004333,77.113632 35.517113,72.623703 
	C36.687462,69.150101 37.817406,65.618134 35.278305,62.137360 
	C34.547432,61.135426 34.571796,59.819050 35.805679,59.068733 
	C41.220097,55.776268 40.366261,49.831249 41.508209,44.907574 
	C42.364792,41.214310 38.886082,41.144276 36.437290,41.562477 
	C34.209381,41.942963 32.117443,43.119610 29.964031,43.940842 
	C27.239092,40.636181 27.692465,37.589718 31.293842,34.990276 
	C36.017323,31.580912 51.811478,31.763378 56.612724,35.282780 
	C61.528996,38.886497 65.164864,38.278175 67.902733,33.282211 
	C69.155731,30.995781 70.756226,30.632372 72.787392,32.086140 
	C73.726570,32.758343 74.721237,33.512711 75.330162,34.461292 
	C80.066666,41.839748 86.667236,40.433228 93.442215,38.462536 
	C95.413353,37.889179 97.217773,36.102722 99.737137,37.580013 
	C99.984795,40.843582 97.467766,42.115456 95.231216,43.306019 
	C91.202431,45.450619 86.787994,46.295055 82.231232,46.382225 
	C80.140999,46.422207 77.971107,46.652496 77.570267,49.175098 
	C76.011734,58.983364 74.584259,68.812599 73.153519,78.640663 
	C73.066681,79.237190 73.374367,79.891151 73.609688,81.080399 
	C76.281723,79.265503 77.023506,76.860725 77.765739,74.342056 
	C79.446999,68.636955 82.918686,64.331665 88.291031,61.660069 
	C90.995544,60.315163 93.739792,60.196259 96.437439,61.676342 
	C98.652855,62.891838 101.100838,64.208275 100.980042,67.094482 
	C100.863289,69.884407 97.959442,69.190788 96.274269,69.876572 
	C89.970917,72.441772 85.696609,79.384377 86.409828,86.270920 
	C86.631157,88.407959 87.807549,90.061150 89.961014,89.352036 
	C92.694481,88.451927 95.202126,86.713120 94.194794,83.137466 
	C93.659981,81.239075 92.427650,79.542877 92.556534,77.440071 
	C92.691551,75.237320 92.739998,72.748482 95.411758,72.228233 
	C98.153725,71.694305 99.732834,73.463829 100.374924,76.024796 
	C100.816902,77.787636 101.153282,79.576942 101.542015,81.353256 
	C104.791283,79.957085 112.635330,68.291000 112.270576,65.171486 
	C112.163429,64.255104 111.467087,63.390381 110.976662,62.538914 
	C108.341202,57.963264 109.032639,51.618877 112.577896,47.781708 
	C114.460190,45.744423 116.774940,44.819954 119.320435,45.989658 
	C121.998405,47.220242 122.517235,49.701187 121.726242,52.366245 
	C120.707970,55.797005 119.526985,59.179466 118.407715,62.608360 
	C120.454910,63.283848 121.679298,62.139984 122.842552,61.388824 
	C125.698250,59.544796 128.063309,59.865200 130.405975,62.265518 
	C132.760208,64.677681 132.804474,67.148071 131.231857,69.976852 
	C128.959579,74.064125 127.126633,78.373177 125.890594,82.876587 
	C124.907082,86.459908 124.111755,91.300934 127.384949,92.998207 
	C131.225739,94.989777 132.874832,89.977638 135.013412,87.471016 
	C138.503754,83.379967 139.288864,77.835739 142.039459,73.091202 
	C144.732224,74.562950 143.686462,76.373116 143.162689,77.961731 
	C141.320419,83.549385 138.220062,88.529694 135.101608,93.431274 
	C132.309830,97.819397 127.130798,99.375679 122.870178,97.778160 
	C118.211700,96.031471 114.830444,90.556221 115.406792,84.812553 
	C115.869537,80.200958 116.512245,75.558014 118.641846,71.288147 
	C119.253113,70.062553 120.444893,68.433830 118.203987,67.549240 
	C116.416290,66.843559 115.441322,68.021881 114.720314,69.496017 
	C113.476852,72.038345 112.376877,74.672104 110.905548,77.077148 
	C108.185326,81.523659 105.127777,85.677505 99.665298,87.157547 
	C98.758606,87.403206 97.903847,88.078041 97.180855,88.727859 
	C88.793900,96.266136 82.779724,95.346939 76.639656,85.341232 
	C75.513641,85.916695 74.386192,86.548691 73.213905,87.082138 
	C68.665649,89.151810 65.681297,88.103683 63.409924,83.568550 
	C61.540962,79.836922 61.459202,75.868523 62.135574,71.847023 
	C62.434444,70.070015 63.143578,68.312035 62.054512,66.150253 
	C60.569386,66.150253 58.941162,66.150253 56.899239,66.139839 
M50.929108,60.844574 
	C54.886631,62.769493 58.989418,61.476265 63.172466,61.805248 
	C63.976330,57.540688 64.660095,53.639332 65.460251,49.761997 
	C66.019325,47.052895 65.462280,44.911411 62.392166,44.745129 
	C59.234142,44.574085 55.064060,42.116676 53.503304,47.133297 
	C52.181675,51.381294 51.500988,55.828705 50.929108,60.844574 
z"/>
<path fill="#000000" opacity="1.000000" stroke="none" 
	d="
M215.004242,78.028976 
	C212.661606,80.864334 208.315033,81.453568 208.326569,85.939339 
	C208.337143,90.056099 209.750717,91.227646 213.469147,89.450363 
	C219.111725,86.753403 222.532272,81.777260 225.911301,76.805336 
	C227.053925,75.124092 227.727783,72.839783 230.534073,73.113441 
	C229.678680,80.807655 217.731354,94.064819 210.840851,95.164520 
	C205.647537,95.993347 201.879669,93.644272 198.276749,87.177124 
	C194.830811,88.877869 192.882568,93.218071 188.347488,93.027077 
	C183.271149,92.813278 183.464050,87.800827 181.083054,85.141678 
	C179.821060,85.098480 179.320755,86.146919 178.851822,86.905846 
	C176.644257,90.478455 173.553909,91.403839 169.868301,89.769936 
	C165.836502,87.982536 164.468231,84.446655 164.960724,80.305710 
	C166.081970,70.878174 173.792084,62.217999 183.315659,59.700371 
	C185.221298,59.196598 185.560837,58.062340 185.791473,56.510067 
	C186.547104,51.424919 187.921387,46.451199 188.009644,41.239410 
	C188.064178,38.020206 188.718124,34.702618 193.152664,34.741734 
	C196.777267,34.773705 198.918213,37.598354 198.701782,42.115665 
	C198.097290,54.731346 196.475708,67.179092 192.380646,79.202271 
	C191.568588,81.586464 191.566025,84.042961 191.615158,87.123657 
	C195.869690,83.569160 198.226929,79.465256 199.779922,74.692612 
	C201.957474,68.000595 205.297058,62.150883 212.737595,60.129333 
	C216.097092,59.216579 219.417435,59.265476 221.850601,62.314106 
	C224.492935,65.624832 222.636154,68.631699 220.908035,71.494797 
	C219.441650,73.924278 217.496719,75.999855 215.004242,78.028976 
M176.959854,83.115074 
	C180.208099,78.573853 183.143021,73.886360 184.487732,67.293304 
	C179.324844,71.608040 176.500092,76.362892 173.987839,81.353867 
	C173.426346,82.469383 173.215881,83.699593 174.212448,84.548584 
	C175.293518,85.469574 175.914413,84.269913 176.959854,83.115074 
z"/>
<path fill="#000000" opacity="1.000000" stroke="none" 
	d="
M80.046127,97.039429 
	C92.575218,96.134399 104.499451,96.231918 115.929459,100.905823 
	C117.463997,101.533325 119.125496,101.894493 120.584526,102.654732 
	C126.337097,105.652191 126.657135,108.489967 122.018303,112.837196 
	C119.923264,114.800537 118.185608,115.411400 116.408501,112.554092 
	C114.901375,110.130890 112.382057,109.197975 109.843254,108.292770 
	C93.780632,102.565628 77.475456,99.388962 60.361835,102.825706 
	C57.312447,103.438080 53.946632,103.980614 49.549767,102.104187 
	C59.819355,96.906357 69.780937,97.497528 80.046127,97.039429 
z"/>
<path fill="#000000" opacity="1.000000" stroke="none" 
	d="
M368.282166,46.186359 
	C369.718536,43.639549 371.293213,43.272411 373.262939,44.976650 
	C374.949982,46.436344 375.715607,48.067768 374.241852,50.120701 
	C373.859192,50.653793 373.488037,51.206181 373.035217,51.676052 
	C370.742065,54.055435 367.741180,57.403950 364.830780,55.249931 
	C362.003479,53.157417 366.207764,50.621780 367.075317,48.199871 
	C367.292725,47.592979 367.736908,47.067318 368.282166,46.186359 
z"/>
</svg>